<svg width="25" height="39" viewBox="0 0 25 39" fill="none" xmlns="http://www.w3.org/2000/svg">
<path d="M24.2175 4.10239C23.8932 3.60575 23.4194 3.59149 22.8795 3.57523C22.8183 3.57339 22.7563 3.57153 22.6936 3.56893C22.6458 3.56673 22.5931 3.56758 22.538 3.56846C22.319 3.57198 22.0629 3.57609 21.9339 3.39212C21.7843 3.17883 21.7985 2.76663 21.8102 2.42635C21.8139 2.31882 21.8173 2.21841 21.8153 2.1338C21.7943 1.34332 21.7504 0.503628 21.4453 0.22292C21.2152 0.0123098 20.5268 0.041487 19.892 0.0683954C19.6862 0.0771184 19.486 0.085603 19.3089 0.085603H5.79596C5.52389 0.085603 5.23869 0.0634489 4.95847 0.0416813C4.41245 -0.000733808 3.88533 -0.0416812 3.511 0.085603C2.96775 0.271231 2.93096 1.24667 2.89633 2.16519L2.89446 2.21461C2.86538 2.97288 2.67746 3.55799 2.05465 3.49906C1.33029 3.43161 0.609497 3.41035 0.281987 4.06594C-0.10481 4.84161 -0.0250374 5.65358 0.117847 7.10792C0.138258 7.31567 0.181766 7.77225 0.181766 7.77225H24.4264C24.4403 7.59995 24.455 7.42986 24.4696 7.26253C24.5831 5.95406 24.682 4.81402 24.2175 4.10239Z" fill="#8047F8"/>
<path fill-rule="evenodd" clip-rule="evenodd" d="M2.06989 10.2147C2.44854 15.3395 2.82306 20.4701 3.19759 25.6009L3.19782 25.604C3.40118 28.3898 3.60453 31.1757 3.80855 33.9606H4.58214C4.63485 34.3966 4.69517 34.9347 4.75876 35.5021C4.88785 36.654 5.03046 37.9264 5.15036 38.7083H5.23592C6.02389 38.42 11.4712 36.0916 11.4736 26.8218C11.4726 26.7954 11.4735 26.769 11.4762 26.7427H10.1305C10.0653 26.7421 10.0022 26.7204 9.95073 26.6808C9.89929 26.6413 9.86243 26.5861 9.84579 26.5239C9.71465 26.1999 9.60891 25.8664 9.52951 25.5265C8.7378 25.9736 8.10908 26.6564 7.73298 27.4775C7.37596 26.6365 7.32923 25.6983 7.60095 24.8267C7.87268 23.9552 8.44558 23.2057 9.21954 22.7093C9.22952 20.0044 10.2423 17.3969 12.0662 15.3804L12.0946 15.3554C12.1476 15.3095 12.2155 15.284 12.2859 15.2835C12.3266 15.2838 12.3668 15.2925 12.4039 15.309C12.4415 15.3257 12.4752 15.35 12.5026 15.3804C14.3478 17.3996 15.3552 20.0322 15.3239 22.7531C16.1124 23.2356 16.6969 23.9846 16.9691 24.8609C17.2413 25.7372 17.1827 26.6813 16.8042 27.5181C16.4301 26.6957 15.8009 26.0124 15.0076 25.5671C14.9592 25.8966 14.87 26.219 14.742 26.527C14.6977 26.6583 14.6091 26.7427 14.5206 26.7427H13.0853C13.0876 26.7585 13.0892 26.7743 13.0901 26.7901L13.0907 26.7938V26.8014C13.0912 26.815 13.0912 26.8287 13.0907 26.8424C13.1104 36.3783 18.902 38.5428 19.3902 38.7083H19.5572C19.5999 37.9573 19.7386 36.9209 19.8739 35.9105C19.9671 35.2142 20.0587 34.5303 20.116 33.9606H20.8986C21.149 30.4527 21.4066 26.9546 21.6643 23.4564L21.6644 23.4545L21.6645 23.4535C21.994 18.979 22.3235 14.5043 22.6381 10.0087H2.12C2.06094 10.0203 2.06497 10.1169 2.06989 10.2147ZM12.2859 15.2835L12.2844 15.2835H12.2876L12.2859 15.2835Z" fill="#8047F8"/>
</svg>
